<svg width="40" height="40" viewBox="0 0 888 972" fill="none" xmlns="http://www.w3.org/2000/svg">
<path d="M41.5198 943.108C36.6109 943.108 32.0526 941.354 27.845 937.848C23.6374 935.043 21.5336 930.835 21.5336 925.225C21.5336 916.81 25.3906 906.642 33.1045 894.72C40.1172 882.798 49.2337 870.526 60.4541 857.903C70.9731 845.28 81.1415 833.008 90.9593 821.087C100.777 809.866 107.79 800.048 111.997 791.633L121.465 785.322H125.672L118.309 793.737L119.361 796.893C123.568 794.088 130.23 788.127 139.347 779.01C149.165 769.193 158.281 759.375 166.696 749.557C175.813 739.739 181.073 733.077 182.475 729.571L196.15 719.052C197.552 711.338 203.163 701.871 212.98 690.65C223.499 679.43 235.421 667.508 248.745 654.886C262.069 641.561 274.692 628.939 286.614 617.017C299.237 605.095 308.002 594.927 312.911 586.512L302.392 574.941C294.678 575.642 288.367 571.084 283.458 561.266C279.25 551.448 275.744 539.527 272.939 525.501C270.134 511.476 268.03 498.152 266.627 485.529C265.225 472.906 263.822 464.14 262.42 459.231L257.16 469.75L248.745 441.349C242.434 441.349 237.875 437.492 235.07 429.778C232.265 422.064 230.512 412.947 229.811 402.428C229.11 391.909 228.408 382.442 227.707 374.027C227.006 365.612 224.902 360.703 221.396 359.3L218.24 348.781L222.447 330.899L263.472 319.328L259.264 291.978L260.316 293.03C261.719 281.109 258.913 270.239 251.901 260.421C245.589 250.603 240.33 240.084 236.122 228.864C236.122 223.254 238.577 214.839 243.486 203.618C248.394 191.697 254.355 185.385 261.368 184.684L267.679 186.788C273.991 206.423 279.952 226.76 285.562 247.798C291.172 268.836 295.38 290.225 298.185 311.965H303.444C310.457 311.965 315.015 313.718 317.119 317.224C319.223 320.73 320.275 325.639 320.275 331.951C320.275 351.586 323.781 371.572 330.794 391.909C337.806 411.545 344.468 431.18 350.78 450.816C357.793 470.452 360.247 490.087 358.143 509.723L366.558 529.709C376.376 521.294 385.493 512.177 393.908 502.359C403.024 492.542 412.842 483.074 423.361 473.958L422.309 472.906L454.918 442.401L453.867 441.349L458.074 436.089V437.141C488.229 411.194 518.383 383.845 548.538 355.093C579.394 325.639 611.652 298.64 645.313 274.096C678.974 249.551 715.44 231.669 754.711 220.449C759.62 224.656 762.075 230.617 762.075 238.331C762.075 245.344 763.127 251.655 765.23 257.265C761.724 262.876 758.919 269.187 756.815 276.2C755.413 283.212 753.66 290.225 751.556 297.238L742.089 287.771H741.037L731.569 298.29L724.206 299.342L718.947 304.601C702.116 310.211 685.987 316.523 670.559 323.535C655.832 329.847 641.106 337.561 626.379 346.677H623.223C634.444 331.249 646.716 318.276 660.04 307.757L665.299 298.29C654.079 298.991 638.651 306.705 619.016 321.432C599.38 336.158 577.641 354.742 553.798 377.183C530.656 398.922 507.163 421.713 483.32 445.556C459.477 469.4 438.088 491.139 419.154 510.775C400.219 530.41 385.843 545.137 376.026 554.955C392.155 592.122 407.232 624.38 421.258 651.73C435.283 679.079 450.36 703.974 466.489 726.415C483.32 748.856 502.605 770.946 524.344 792.685C546.084 814.425 572.732 837.917 604.289 863.163C628.833 866.669 651.975 871.929 673.715 878.941C696.155 885.954 719.999 889.46 745.244 889.46C759.27 889.46 773.295 888.058 787.32 885.253C802.047 882.448 816.423 881.396 830.449 882.097C825.54 887.707 815.722 892.967 800.995 897.876C786.97 903.486 772.243 908.044 756.815 911.55C742.089 915.057 730.868 916.81 723.154 916.81C719.648 916.81 711.934 915.758 700.012 913.654C688.792 912.252 676.169 910.148 662.144 907.343C648.82 904.538 636.898 901.733 626.379 898.928C616.561 896.122 610.951 893.668 609.548 891.564L612.704 886.305C609.899 877.889 603.588 872.63 593.77 870.526C583.952 868.422 573.082 867.02 561.161 866.318C549.941 866.318 540.824 864.916 533.811 862.111L527.5 853.696H523.292C513.475 853.696 504.709 850.891 496.995 845.28C489.982 839.67 483.671 833.359 478.06 826.346L458.074 828.45L452.815 816.879V809.516L446.503 802.152L440.192 810.568C431.075 807.061 420.907 801.451 409.687 793.737C399.168 786.724 393.207 777.608 391.804 766.388C387.597 762.18 380.934 752.713 371.818 737.986C362.701 722.558 353.585 706.78 344.468 690.65C335.352 674.521 328.69 662.6 324.482 654.886L330.794 640.159L325.534 632.796L322.378 633.847L313.963 617.017C306.249 624.731 293.977 637.354 277.147 654.886C260.316 671.716 241.732 691.001 221.396 712.74C201.76 733.778 182.475 755.167 163.541 776.907C145.308 797.945 130.23 817.23 118.309 834.761C106.387 852.293 100.426 865.267 100.426 873.682L101.478 875.786C109.192 872.981 116.906 870.175 124.62 867.37C133.036 865.267 140.399 861.41 146.71 855.799L155.126 852.644L163.541 853.696C178.267 839.67 197.202 827.749 220.344 817.931C243.486 808.113 264.173 797.945 282.406 787.426L286.614 789.529C285.912 790.231 278.198 795.49 263.472 805.308C249.446 815.126 231.564 827.047 209.825 841.073C188.786 855.799 167.398 870.526 145.658 885.253C124.62 899.979 106.738 912.252 92.0112 922.069C76.5833 931.887 68.5187 937.147 67.8174 937.848C58.7009 941.354 49.935 943.108 41.5198 943.108ZM166.696 737.986L167.748 732.727C175.462 723.61 183.878 716.597 192.994 711.688C189.488 716.597 185.28 721.156 180.371 725.363C176.164 729.571 171.605 733.778 166.696 737.986ZM136.191 774.803L130.932 773.751C134.438 770.244 138.295 766.037 142.503 761.128C147.412 755.518 152.32 751.31 157.229 748.505L159.333 752.713C157.229 755.518 154.424 757.972 150.918 760.076C148.113 762.18 145.308 764.284 142.503 766.388L140.399 771.647L136.191 774.803Z" fill="white"/>
<path d="M56.3433 943.108C51.4344 943.108 46.8761 941.354 42.6685 937.848C38.4609 935.043 36.3571 930.835 36.3571 925.225C36.3571 916.81 40.2141 906.642 47.928 894.72C54.9407 882.798 64.0573 870.526 75.2776 857.903C85.7966 845.28 95.965 833.008 105.783 821.087C115.601 809.866 122.613 800.048 126.821 791.633L136.288 785.322H140.496L133.132 793.737L134.184 796.893C138.392 794.088 145.054 788.127 154.17 779.01C163.988 769.193 173.105 759.375 181.52 749.557C190.637 739.739 195.896 733.077 197.299 729.571L210.973 719.052C212.376 711.338 217.986 701.871 227.804 690.65C238.323 679.43 250.244 667.508 263.569 654.886C276.893 641.561 289.516 628.939 301.437 617.017C314.06 605.095 322.826 594.927 327.735 586.512L317.216 574.941C309.502 575.642 303.19 571.084 298.281 561.266C294.074 551.448 290.567 539.527 287.762 525.501C284.957 511.476 282.854 498.152 281.451 485.529C280.048 472.906 278.646 464.14 277.243 459.231L271.984 469.75L263.569 441.349C257.257 441.349 252.699 437.492 249.894 429.778C247.089 422.064 245.336 412.947 244.634 402.428C243.933 391.909 243.232 382.442 242.53 374.027C241.829 365.612 239.725 360.703 236.219 359.3L233.063 348.781L237.271 330.899L278.295 319.328L274.088 291.978L275.14 293.03C276.542 281.109 273.737 270.239 266.724 260.421C260.413 250.603 255.153 240.084 250.946 228.864C250.946 223.254 253.4 214.839 258.309 203.618C263.218 191.697 269.179 185.385 276.191 184.684L282.503 186.788C288.814 206.423 294.775 226.76 300.385 247.798C305.995 268.836 310.203 290.225 313.008 311.965H318.268C325.28 311.965 329.839 313.718 331.942 317.224C334.046 320.73 335.098 325.639 335.098 331.951C335.098 351.586 338.604 371.572 345.617 391.909C352.63 411.545 359.292 431.18 365.603 450.816C372.616 470.452 375.071 490.087 372.967 509.723L381.382 529.709C391.2 521.294 400.316 512.177 408.731 502.359C417.848 492.542 427.666 483.074 438.185 473.958L437.133 472.906L469.742 442.401L468.69 441.349L472.898 436.089V437.141C503.052 411.194 533.207 383.845 563.362 355.093C594.217 325.639 626.476 298.64 660.137 274.096C693.798 249.551 730.264 231.669 769.535 220.449C774.444 224.656 776.898 230.617 776.898 238.331C776.898 245.344 777.95 251.655 780.054 257.265C776.548 262.876 773.743 269.187 771.639 276.2C770.236 283.212 768.483 290.225 766.379 297.238L756.912 287.771H755.86L746.393 298.29L739.03 299.342L733.77 304.601C716.94 310.211 700.81 316.523 685.383 323.535C670.656 329.847 655.929 337.561 641.202 346.677H638.047C649.267 331.249 661.539 318.276 674.863 307.757L680.123 298.29C668.903 298.991 653.475 306.705 633.839 321.432C614.204 336.158 592.464 354.742 568.621 377.183C545.479 398.922 521.987 421.713 498.143 445.556C474.3 469.4 452.912 491.139 433.977 510.775C415.043 530.41 400.667 545.137 390.849 554.955C406.978 592.122 422.056 624.38 436.081 651.73C450.106 679.079 465.184 703.974 481.313 726.415C498.143 748.856 517.428 770.946 539.168 792.685C560.907 814.425 587.555 837.917 619.112 863.163C643.657 866.669 666.799 871.929 688.538 878.941C710.979 885.954 734.822 889.46 760.068 889.46C774.093 889.46 788.119 888.058 802.144 885.253C816.871 882.448 831.247 881.396 845.272 882.097C840.363 887.707 830.545 892.967 815.819 897.876C801.793 903.486 787.067 908.044 771.639 911.55C756.912 915.057 745.692 916.81 737.978 916.81C734.471 916.81 726.757 915.758 714.836 913.654C703.616 912.252 690.993 910.148 676.967 907.343C663.643 904.538 651.722 901.733 641.202 898.928C631.385 896.122 625.775 893.668 624.372 891.564L627.528 886.305C624.723 877.889 618.411 872.63 608.593 870.526C598.776 868.422 587.906 867.02 575.984 866.318C564.764 866.318 555.648 864.916 548.635 862.111L542.323 853.696H538.116C528.298 853.696 519.532 850.891 511.818 845.28C504.805 839.67 498.494 833.359 492.884 826.346L472.898 828.45L467.638 816.879V809.516L461.327 802.152L455.015 810.568C445.899 807.061 435.73 801.451 424.51 793.737C413.991 786.724 408.03 777.608 406.628 766.388C402.42 762.18 395.758 752.713 386.641 737.986C377.525 722.558 368.408 706.78 359.292 690.65C350.175 674.521 343.513 662.6 339.306 654.886L345.617 640.159L340.358 632.796L337.202 633.847L328.787 617.017C321.073 624.731 308.801 637.354 291.97 654.886C275.14 671.716 256.556 691.001 236.219 712.74C216.583 733.778 197.299 755.167 178.364 776.907C160.131 797.945 145.054 817.23 133.132 834.761C121.211 852.293 115.25 865.267 115.25 873.682L116.302 875.786C124.016 872.981 131.73 870.175 139.444 867.37C147.859 865.267 155.222 861.41 161.534 855.799L169.949 852.644L178.364 853.696C193.091 839.67 212.025 827.749 235.167 817.931C258.309 808.113 278.997 797.945 297.23 787.426L301.437 789.529C300.736 790.231 293.022 795.49 278.295 805.308C264.27 815.126 246.387 827.047 224.648 841.073C203.61 855.799 182.221 870.526 160.482 885.253C139.444 899.979 121.561 912.252 106.835 922.069C91.4068 931.887 83.3422 937.147 82.6409 937.848C73.5244 941.354 64.7585 943.108 56.3433 943.108ZM181.52 737.986L182.572 732.727C190.286 723.61 198.701 716.597 207.818 711.688C204.311 716.597 200.104 721.156 195.195 725.363C190.987 729.571 186.429 733.778 181.52 737.986ZM151.015 774.803L145.755 773.751C149.262 770.244 153.119 766.037 157.326 761.128C162.235 755.518 167.144 751.31 172.053 748.505L174.157 752.713C172.053 755.518 169.248 757.972 165.741 760.076C162.936 762.18 160.131 764.284 157.326 766.388L155.222 771.647L151.015 774.803Z" fill="white"/>
<path d="M71.1668 943.108C66.2579 943.108 61.6997 941.354 57.492 937.848C53.2844 935.043 51.1806 930.835 51.1806 925.225C51.1806 916.81 55.0376 906.642 62.7516 894.72C69.7643 882.798 78.8808 870.526 90.1011 857.903C100.62 845.28 110.789 833.008 120.606 821.087C130.424 809.866 137.437 800.048 141.644 791.633L151.112 785.322H155.319L147.956 793.737L149.008 796.893C153.215 794.088 159.877 788.127 168.994 779.01C178.812 769.193 187.928 759.375 196.344 749.557C205.46 739.739 210.72 733.077 212.122 729.571L225.797 719.052C227.199 711.338 232.81 701.871 242.627 690.65C253.146 679.43 265.068 667.508 278.392 654.886C291.716 641.561 304.339 628.939 316.261 617.017C328.884 605.095 337.649 594.927 342.558 586.512L332.039 574.941C324.325 575.642 318.014 571.084 313.105 561.266C308.897 551.448 305.391 539.527 302.586 525.501C299.781 511.476 297.677 498.152 296.274 485.529C294.872 472.906 293.469 464.14 292.067 459.231L286.807 469.75L278.392 441.349C272.081 441.349 267.522 437.492 264.717 429.778C261.912 422.064 260.159 412.947 259.458 402.428C258.757 391.909 258.055 382.442 257.354 374.027C256.653 365.612 254.549 360.703 251.043 359.3L247.887 348.781L252.094 330.899L293.119 319.328L288.911 291.978L289.963 293.03C291.366 281.109 288.561 270.239 281.548 260.421C275.236 250.603 269.977 240.084 265.769 228.864C265.769 223.254 268.224 214.839 273.133 203.618C278.041 191.697 284.002 185.385 291.015 184.684L297.326 186.788C303.638 206.423 309.599 226.76 315.209 247.798C320.819 268.836 325.027 290.225 327.832 311.965H333.091C340.104 311.965 344.662 313.718 346.766 317.224C348.87 320.73 349.922 325.639 349.922 331.951C349.922 351.586 353.428 371.572 360.441 391.909C367.453 411.545 374.115 431.18 380.427 450.816C387.44 470.452 389.894 490.087 387.79 509.723L396.205 529.709C406.023 521.294 415.14 512.177 423.555 502.359C432.672 492.542 442.489 483.074 453.008 473.958L451.956 472.906L484.566 442.401L483.514 441.349L487.721 436.089V437.141C517.876 411.194 548.03 383.845 578.185 355.093C609.041 325.639 641.299 298.64 674.96 274.096C708.621 249.551 745.087 231.669 784.358 220.449C789.267 224.656 791.722 230.617 791.722 238.331C791.722 245.344 792.774 251.655 794.877 257.265C791.371 262.876 788.566 269.187 786.462 276.2C785.06 283.212 783.307 290.225 781.203 297.238L771.736 287.771H770.684L761.217 298.29L753.853 299.342L748.594 304.601C731.763 310.211 715.634 316.523 700.206 323.535C685.479 329.847 670.753 337.561 656.026 346.677H652.87C664.091 331.249 676.363 318.276 689.687 307.757L694.947 298.29C683.726 298.991 668.298 306.705 648.663 321.432C629.027 336.158 607.288 354.742 583.445 377.183C560.303 398.922 536.81 421.713 512.967 445.556C489.124 469.4 467.735 491.139 448.801 510.775C429.866 530.41 415.49 545.137 405.673 554.955C421.802 592.122 436.879 624.38 450.905 651.73C464.93 679.079 480.007 703.974 496.136 726.415C512.967 748.856 532.252 770.946 553.991 792.685C575.731 814.425 602.379 837.917 633.936 863.163C658.48 866.669 681.622 871.929 703.362 878.941C725.802 885.954 749.646 889.46 774.891 889.46C788.917 889.46 802.942 888.058 816.968 885.253C831.694 882.448 846.07 881.396 860.096 882.097C855.187 887.707 845.369 892.967 830.642 897.876C816.617 903.486 801.89 908.044 786.462 911.55C771.736 915.057 760.515 916.81 752.801 916.81C749.295 916.81 741.581 915.758 729.659 913.654C718.439 912.252 705.816 910.148 691.791 907.343C678.467 904.538 666.545 901.733 656.026 898.928C646.208 896.122 640.598 893.668 639.196 891.564L642.351 886.305C639.546 877.889 633.235 872.63 623.417 870.526C613.599 868.422 602.73 867.02 590.808 866.318C579.588 866.318 570.471 864.916 563.458 862.111L557.147 853.696H552.939C543.122 853.696 534.356 850.891 526.642 845.28C519.629 839.67 513.318 833.359 507.707 826.346L487.721 828.45L482.462 816.879V809.516L476.15 802.152L469.839 810.568C460.722 807.061 450.554 801.451 439.334 793.737C428.815 786.724 422.854 777.608 421.451 766.388C417.244 762.18 410.582 752.713 401.465 737.986C392.348 722.558 383.232 706.78 374.115 690.65C364.999 674.521 358.337 662.6 354.129 654.886L360.441 640.159L355.181 632.796L352.025 633.847L343.61 617.017C335.896 624.731 323.624 637.354 306.794 654.886C289.963 671.716 271.379 691.001 251.043 712.74C231.407 733.778 212.122 755.167 193.188 776.907C174.955 797.945 159.877 817.23 147.956 834.761C136.034 852.293 130.073 865.267 130.073 873.682L131.125 875.786C138.839 872.981 146.553 870.175 154.267 867.37C162.683 865.267 170.046 861.41 176.357 855.799L184.773 852.644L193.188 853.696C207.914 839.67 226.849 827.749 249.991 817.931C273.133 808.113 293.82 797.945 312.053 787.426L316.261 789.529C315.559 790.231 307.845 795.49 293.119 805.308C279.093 815.126 261.211 827.047 239.472 841.073C218.434 855.799 197.045 870.526 175.305 885.253C154.267 899.979 136.385 912.252 121.658 922.069C106.23 931.887 98.1657 937.147 97.4644 937.848C88.3479 941.354 79.582 943.108 71.1668 943.108ZM196.344 737.986L197.395 732.727C205.109 723.61 213.525 716.597 222.641 711.688C219.135 716.597 214.927 721.156 210.018 725.363C205.811 729.571 201.252 733.778 196.344 737.986ZM165.838 774.803L160.579 773.751C164.085 770.244 167.942 766.037 172.15 761.128C177.059 755.518 181.967 751.31 186.876 748.505L188.98 752.713C186.876 755.518 184.071 757.972 180.565 760.076C177.76 762.18 174.955 764.284 172.15 766.388L170.046 771.647L165.838 774.803Z" fill="white"/>
<path d="M98.9609 943.108C94.052 943.108 89.4938 941.354 85.2862 937.848C81.0785 935.043 78.9747 930.835 78.9747 925.225C78.9747 916.81 82.8317 906.642 90.5457 894.72C97.5584 882.798 106.675 870.526 117.895 857.903C128.414 845.28 138.583 833.008 148.4 821.087C158.218 809.866 165.231 800.048 169.439 791.633L178.906 785.322H183.113L175.75 793.737L176.802 796.893C181.01 794.088 187.672 788.127 196.788 779.01C206.606 769.193 215.722 759.375 224.138 749.557C233.254 739.739 238.514 733.077 239.916 729.571L253.591 719.052C254.994 711.338 260.604 701.871 270.421 690.65C280.941 679.43 292.862 667.508 306.186 654.886C319.51 641.561 332.133 628.939 344.055 617.017C356.678 605.095 365.444 594.927 370.352 586.512L359.833 574.941C352.119 575.642 345.808 571.084 340.899 561.266C336.691 551.448 333.185 539.527 330.38 525.501C327.575 511.476 325.471 498.152 324.069 485.529C322.666 472.906 321.264 464.14 319.861 459.231L314.601 469.75L306.186 441.349C299.875 441.349 295.317 437.492 292.511 429.778C289.706 422.064 287.953 412.947 287.252 402.428C286.551 391.909 285.849 382.442 285.148 374.027C284.447 365.612 282.343 360.703 278.837 359.3L275.681 348.781L279.889 330.899L320.913 319.328L316.705 291.978L317.757 293.03C319.16 281.109 316.355 270.239 309.342 260.421C303.031 250.603 297.771 240.084 293.563 228.864C293.563 223.254 296.018 214.839 300.927 203.618C305.836 191.697 311.796 185.385 318.809 184.684L325.121 186.788C331.432 206.423 337.393 226.76 343.003 247.798C348.613 268.836 352.821 290.225 355.626 311.965H360.885C367.898 311.965 372.456 313.718 374.56 317.224C376.664 320.73 377.716 325.639 377.716 331.951C377.716 351.586 381.222 371.572 388.235 391.909C395.248 411.545 401.91 431.18 408.221 450.816C415.234 470.452 417.688 490.087 415.584 509.723L424 529.709C433.817 521.294 442.934 512.177 451.349 502.359C460.466 492.542 470.283 483.074 480.802 473.958L479.751 472.906L512.36 442.401L511.308 441.349L515.515 436.089V437.141C545.67 411.194 575.825 383.845 605.979 355.093C636.835 325.639 669.093 298.64 702.754 274.096C736.415 249.551 772.881 231.669 812.153 220.449C817.061 224.656 819.516 230.617 819.516 238.331C819.516 245.344 820.568 251.655 822.672 257.265C819.165 262.876 816.36 269.187 814.256 276.2C812.854 283.212 811.101 290.225 808.997 297.238L799.53 287.771H798.478L789.011 298.29L781.647 299.342L776.388 304.601C759.557 310.211 743.428 316.523 728 323.535C713.273 329.847 698.547 337.561 683.82 346.677H680.664C691.885 331.249 704.157 318.276 717.481 307.757L722.741 298.29C711.52 298.991 696.092 306.705 676.457 321.432C656.821 336.158 635.082 354.742 611.239 377.183C588.097 398.922 564.604 421.713 540.761 445.556C516.918 469.4 495.529 491.139 476.595 510.775C457.661 530.41 443.285 545.137 433.467 554.955C449.596 592.122 464.673 624.38 478.699 651.73C492.724 679.079 507.801 703.974 523.931 726.415C540.761 748.856 560.046 770.946 581.785 792.685C603.525 814.425 630.173 837.917 661.73 863.163C686.275 866.669 709.416 871.929 731.156 878.941C753.596 885.954 777.44 889.46 802.685 889.46C816.711 889.46 830.736 888.058 844.762 885.253C859.488 882.448 873.864 881.396 887.89 882.097C882.981 887.707 873.163 892.967 858.436 897.876C844.411 903.486 829.684 908.044 814.256 911.55C799.53 915.057 788.309 916.81 780.595 916.81C777.089 916.81 769.375 915.758 757.454 913.654C746.233 912.252 733.61 910.148 719.585 907.343C706.261 904.538 694.339 901.733 683.82 898.928C674.002 896.122 668.392 893.668 666.99 891.564L670.145 886.305C667.34 877.889 661.029 872.63 651.211 870.526C641.393 868.422 630.524 867.02 618.602 866.318C607.382 866.318 598.265 864.916 591.252 862.111L584.941 853.696H580.733C570.916 853.696 562.15 850.891 554.436 845.28C547.423 839.67 541.112 833.359 535.502 826.346L515.515 828.45L510.256 816.879V809.516L503.944 802.152L497.633 810.568C488.516 807.061 478.348 801.451 467.128 793.737C456.609 786.724 450.648 777.608 449.245 766.388C445.038 762.18 438.376 752.713 429.259 737.986C420.143 722.558 411.026 706.78 401.91 690.65C392.793 674.521 386.131 662.6 381.923 654.886L388.235 640.159L382.975 632.796L379.82 633.847L371.404 617.017C363.69 624.731 351.418 637.354 334.588 654.886C317.757 671.716 299.174 691.001 278.837 712.74C259.201 733.778 239.916 755.167 220.982 776.907C202.749 797.945 187.672 817.23 175.75 834.761C163.828 852.293 157.868 865.267 157.868 873.682L158.92 875.786C166.633 872.981 174.347 870.175 182.061 867.37C190.477 865.267 197.84 861.41 204.151 855.799L212.567 852.644L220.982 853.696C235.709 839.67 254.643 827.749 277.785 817.931C300.927 808.113 321.614 797.945 339.847 787.426L344.055 789.529C343.354 790.231 335.64 795.49 320.913 805.308C306.888 815.126 289.005 827.047 267.266 841.073C246.228 855.799 224.839 870.526 203.1 885.253C182.061 899.979 164.179 912.252 149.452 922.069C134.024 931.887 125.96 937.147 125.259 937.848C116.142 941.354 107.376 943.108 98.9609 943.108ZM224.138 737.986L225.19 732.727C232.904 723.61 241.319 716.597 250.435 711.688C246.929 716.597 242.721 721.156 237.812 725.363C233.605 729.571 229.047 733.778 224.138 737.986ZM193.632 774.803L188.373 773.751C191.879 770.244 195.736 766.037 199.944 761.128C204.853 755.518 209.762 751.31 214.67 748.505L216.774 752.713C214.67 755.518 211.865 757.972 208.359 760.076C205.554 762.18 202.749 764.284 199.944 766.388L197.84 771.647L193.632 774.803Z" fill="white"/>
<path d="M20.2109 943.108C15.302 943.108 10.7438 941.354 6.53616 937.848C2.32854 935.043 0.224729 930.835 0.224729 925.225C0.224729 916.81 4.08172 906.642 11.7957 894.72C18.8084 882.798 27.9249 870.526 39.1452 857.903C49.6643 845.28 59.8327 833.008 69.6505 821.087C79.4682 809.866 86.4809 800.048 90.6886 791.633L100.156 785.322H104.363L97 793.737L98.0519 796.893C102.26 794.088 108.922 788.127 118.038 779.01C127.856 769.193 136.972 759.375 145.388 749.557C154.504 739.739 159.764 733.077 161.166 729.571L174.841 719.052C176.244 711.338 181.854 701.871 191.671 690.65C202.191 679.43 214.112 667.508 227.436 654.886C240.76 641.561 253.383 628.939 265.305 617.017C277.928 605.095 286.694 594.927 291.602 586.512L281.083 574.941C273.369 575.642 267.058 571.084 262.149 561.266C257.941 551.448 254.435 539.527 251.63 525.501C248.825 511.476 246.721 498.152 245.319 485.529C243.916 472.906 242.514 464.14 241.111 459.231L235.851 469.75L227.436 441.349C221.125 441.349 216.567 437.492 213.761 429.778C210.956 422.064 209.203 412.947 208.502 402.428C207.801 391.909 207.099 382.442 206.398 374.027C205.697 365.612 203.593 360.703 200.087 359.3L196.931 348.781L201.139 330.899L242.163 319.328L237.955 291.978L239.007 293.03C240.41 281.109 237.605 270.239 230.592 260.421C224.281 250.603 219.021 240.084 214.813 228.864C214.813 223.254 217.268 214.839 222.177 203.618C227.086 191.697 233.046 185.385 240.059 184.684L246.371 186.788C252.682 206.423 258.643 226.76 264.253 247.798C269.863 268.836 274.071 290.225 276.876 311.965H282.135C289.148 311.965 293.706 313.718 295.81 317.224C297.914 320.73 298.966 325.639 298.966 331.951C298.966 351.586 302.472 371.572 309.485 391.909C316.498 411.545 323.16 431.18 329.471 450.816C336.484 470.452 338.938 490.087 336.834 509.723L345.25 529.709C355.067 521.294 364.184 512.177 372.599 502.359C381.716 492.542 391.533 483.074 402.052 473.958L401.001 472.906L433.61 442.401L432.558 441.349L436.765 436.089V437.141C466.92 411.194 497.075 383.845 527.229 355.093C558.085 325.639 590.343 298.64 624.004 274.096C657.665 249.551 694.131 231.669 733.403 220.449C738.311 224.656 740.766 230.617 740.766 238.331C740.766 245.344 741.818 251.655 743.922 257.265C740.415 262.876 737.61 269.187 735.506 276.2C734.104 283.212 732.351 290.225 730.247 297.238L720.78 287.771H719.728L710.261 298.29L702.897 299.342L697.638 304.601C680.807 310.211 664.678 316.523 649.25 323.535C634.523 329.847 619.797 337.561 605.07 346.677H601.914C613.135 331.249 625.407 318.276 638.731 307.757L643.991 298.29C632.77 298.991 617.342 306.705 597.707 321.432C578.071 336.158 556.332 354.742 532.489 377.183C509.347 398.922 485.854 421.713 462.011 445.556C438.168 469.4 416.779 491.139 397.845 510.775C378.911 530.41 364.535 545.137 354.717 554.955C370.846 592.122 385.923 624.38 399.949 651.73C413.974 679.079 429.051 703.974 445.181 726.415C462.011 748.856 481.296 770.946 503.035 792.685C524.775 814.425 551.423 837.917 582.98 863.163C607.525 866.669 630.666 871.929 652.406 878.941C674.846 885.954 698.69 889.46 723.935 889.46C737.961 889.46 751.986 888.058 766.012 885.253C780.738 882.448 795.114 881.396 809.14 882.097C804.231 887.707 794.413 892.967 779.686 897.876C765.661 903.486 750.934 908.044 735.506 911.55C720.78 915.057 709.559 916.81 701.845 916.81C698.339 916.81 690.625 915.758 678.704 913.654C667.483 912.252 654.86 910.148 640.835 907.343C627.511 904.538 615.589 901.733 605.07 898.928C595.252 896.122 589.642 893.668 588.24 891.564L591.395 886.305C588.59 877.889 582.279 872.63 572.461 870.526C562.643 868.422 551.774 867.02 539.852 866.318C528.632 866.318 519.515 864.916 512.502 862.111L506.191 853.696H501.983C492.166 853.696 483.4 850.891 475.686 845.28C468.673 839.67 462.362 833.359 456.752 826.346L436.765 828.45L431.506 816.879V809.516L425.194 802.152L418.883 810.568C409.766 807.061 399.598 801.451 388.378 793.737C377.859 786.724 371.898 777.608 370.495 766.388C366.288 762.18 359.626 752.713 350.509 737.986C341.393 722.558 332.276 706.78 323.16 690.65C314.043 674.521 307.381 662.6 303.173 654.886L309.485 640.159L304.225 632.796L301.07 633.847L292.654 617.017C284.94 624.731 272.668 637.354 255.838 654.886C239.007 671.716 220.424 691.001 200.087 712.74C180.451 733.778 161.166 755.167 142.232 776.907C123.999 797.945 108.922 817.23 97 834.761C85.0784 852.293 79.1176 865.267 79.1176 873.682L80.1695 875.786C87.8835 872.981 95.5975 870.175 103.311 867.37C111.727 865.267 119.09 861.41 125.401 855.799L133.817 852.644L142.232 853.696C156.959 839.67 175.893 827.749 199.035 817.931C222.177 808.113 242.864 797.945 261.097 787.426L265.305 789.529C264.604 790.231 256.89 795.49 242.163 805.308C228.138 815.126 210.255 827.047 188.516 841.073C167.478 855.799 146.089 870.526 124.35 885.253C103.311 899.979 85.429 912.252 70.7024 922.069C55.2744 931.887 47.2098 937.147 46.5086 937.848C37.392 941.354 28.6262 943.108 20.2109 943.108ZM145.388 737.986L146.44 732.727C154.154 723.61 162.569 716.597 171.685 711.688C168.179 716.597 163.971 721.156 159.062 725.363C154.855 729.571 150.297 733.778 145.388 737.986ZM114.882 774.803L109.623 773.751C113.129 770.244 116.986 766.037 121.194 761.128C126.103 755.518 131.012 751.31 135.92 748.505L138.024 752.713C135.92 755.518 133.115 757.972 129.609 760.076C126.804 762.18 123.999 764.284 121.194 766.388L119.09 771.647L114.882 774.803Z" fill="white"/>
</svg>
